<svg width="22" height="20" viewBox="0 0 22 20" fill="none" xmlns="http://www.w3.org/2000/svg">
<path d="M21.4997 0.566559H0.499686C0.381829 0.566559 0.2854 0.662987 0.2854 0.780845V2.49513C0.2854 2.61299 0.381829 2.70942 0.499686 2.70942H21.4997C21.6175 2.70942 21.714 2.61299 21.714 2.49513V0.780845C21.714 0.662987 21.6175 0.566559 21.4997 0.566559ZM21.4997 17.2808H0.499686C0.381829 17.2808 0.2854 17.3773 0.2854 17.4951V19.2094C0.2854 19.3273 0.381829 19.4237 0.499686 19.4237H21.4997C21.6175 19.4237 21.714 19.3273 21.714 19.2094V17.4951C21.714 17.3773 21.6175 17.2808 21.4997 17.2808ZM21.4997 8.9237H0.499686C0.381829 8.9237 0.2854 9.02013 0.2854 9.13799V10.8523C0.2854 10.9701 0.381829 11.0666 0.499686 11.0666H21.4997C21.6175 11.0666 21.714 10.9701 21.714 10.8523V9.13799C21.714 9.02013 21.6175 8.9237 21.4997 8.9237Z" fill="white"/>
</svg>
